<svg xmlns="http://www.w3.org/2000/svg" version="1" xmlns:xlink="http://www.w3.org/1999/xlink" width="1024" zoomAndPan="magnify" viewBox="0 0 768 767.999994" height="1024" preserveAspectRatio="xMidYMid meet"><defs><clipPath id="bccd7ff44c"><path d="M 285 38.398438 L 653 38.398438 L 653 729.898438 L 285 729.898438 Z M 285 38.398438 " clip-rule="nonzero"></path></clipPath><clipPath id="3755924407"><path d="M 114.863281 116 L 378 116 L 378 642 L 114.863281 642 Z M 114.863281 116 " clip-rule="nonzero"></path></clipPath></defs><path fill="#2c2d2f" d="M 651.464844 378.515625 C 651.644531 378.347656 651.804688 378.160156 651.945312 377.960938 C 652.085938 377.757812 652.203125 377.542969 652.300781 377.316406 C 652.394531 377.089844 652.46875 376.855469 652.515625 376.617188 C 652.5625 376.375 652.585938 376.128906 652.582031 375.882812 C 652.578125 375.636719 652.550781 375.394531 652.496094 375.15625 C 652.445312 374.914062 652.367188 374.683594 652.265625 374.457031 C 652.164062 374.234375 652.042969 374.023438 651.898438 373.824219 C 651.75 373.625 651.589844 373.445312 651.40625 373.28125 L 288.867188 39.820312 C 287.339844 38.398438 286.050781 38.957031 286.042969 41.058594 L 285.675781 168.585938 C 285.738281 169.789062 286.007812 170.949219 286.476562 172.058594 C 286.949219 173.171875 287.59375 174.167969 288.417969 175.050781 L 493.929688 373.21875 C 494.289062 373.566406 494.570312 373.972656 494.769531 374.433594 C 494.96875 374.894531 495.070312 375.375 495.074219 375.878906 C 495.078125 376.382812 494.988281 376.863281 494.796875 377.332031 C 494.609375 377.796875 494.335938 378.207031 493.980469 378.5625 L 288.355469 585.21875 C 287.550781 586.121094 286.921875 587.128906 286.464844 588.25 C 286.007812 589.367188 285.75 590.53125 285.691406 591.738281 L 286.457031 726.9375 C 286.457031 729.039062 287.714844 729.566406 289.226562 728.105469 Z M 651.464844 378.515625 " fill-opacity="1" fill-rule="nonzero"></path><g clip-path="url(#bccd7ff44c)"><path fill="#2c2d2f" d="M 287.667969 729.3125 C 287.484375 729.316406 287.308594 729.28125 287.140625 729.207031 C 286.464844 728.921875 286.089844 728.121094 286.082031 726.914062 L 285.316406 591.714844 C 285.375 590.457031 285.644531 589.242188 286.121094 588.078125 C 286.597656 586.910156 287.257812 585.859375 288.097656 584.921875 L 493.730469 378.300781 C 494.046875 377.980469 494.292969 377.613281 494.460938 377.191406 C 494.628906 376.773438 494.710938 376.339844 494.707031 375.886719 C 494.703125 375.433594 494.609375 375 494.429688 374.585938 C 494.253906 374.171875 494 373.808594 493.675781 373.492188 L 288.148438 175.324219 C 287.292969 174.40625 286.617188 173.367188 286.128906 172.207031 C 285.636719 171.050781 285.359375 169.839844 285.296875 168.585938 L 285.660156 41.09375 C 285.660156 39.917969 286.042969 39.101562 286.722656 38.804688 C 287.402344 38.507812 288.25 38.804688 289.128906 39.566406 L 651.664062 373.027344 C 651.867188 373.210938 652.046875 373.410156 652.207031 373.632812 C 652.367188 373.851562 652.503906 374.085938 652.613281 374.332031 C 652.726562 374.582031 652.8125 374.835938 652.871094 375.101562 C 652.929688 375.367188 652.960938 375.636719 652.960938 375.910156 C 652.964844 376.179688 652.941406 376.449219 652.890625 376.71875 C 652.835938 376.984375 652.757812 377.242188 652.652344 377.492188 C 652.546875 377.746094 652.414062 377.980469 652.261719 378.203125 C 652.105469 378.429688 651.929688 378.632812 651.734375 378.820312 L 289.5 728.382812 C 289.011719 728.929688 288.402344 729.238281 287.667969 729.3125 Z M 287.300781 39.414062 C 287.207031 39.414062 287.117188 39.429688 287.027344 39.46875 C 286.644531 39.636719 286.433594 40.230469 286.425781 41.058594 L 286.058594 168.585938 C 286.125 169.738281 286.382812 170.84375 286.832031 171.90625 C 287.28125 172.96875 287.898438 173.925781 288.675781 174.777344 L 494.210938 372.945312 C 494.40625 373.132812 494.582031 373.34375 494.738281 373.566406 C 494.894531 373.792969 495.027344 374.03125 495.136719 374.285156 C 495.242188 374.535156 495.324219 374.796875 495.382812 375.0625 C 495.4375 375.332031 495.46875 375.601562 495.472656 375.878906 C 495.472656 376.152344 495.449219 376.421875 495.398438 376.691406 C 495.347656 376.960938 495.269531 377.222656 495.167969 377.476562 C 495.066406 377.730469 494.9375 377.972656 494.789062 378.203125 C 494.636719 378.429688 494.464844 378.640625 494.273438 378.835938 L 288.632812 585.484375 C 287.863281 586.351562 287.261719 587.324219 286.820312 588.394531 C 286.382812 589.46875 286.132812 590.582031 286.074219 591.738281 L 286.835938 726.9375 C 286.835938 727.761719 287.066406 728.351562 287.425781 728.464844 C 287.785156 728.578125 288.363281 728.367188 288.953125 727.792969 L 651.191406 378.242188 C 651.351562 378.089844 651.496094 377.925781 651.621094 377.746094 C 651.746094 377.5625 651.851562 377.371094 651.9375 377.171875 C 652.023438 376.96875 652.085938 376.757812 652.128906 376.542969 C 652.171875 376.328125 652.191406 376.109375 652.191406 375.890625 C 652.1875 375.671875 652.164062 375.453125 652.113281 375.238281 C 652.066406 375.023438 652 374.816406 651.90625 374.617188 C 651.816406 374.414062 651.707031 374.226562 651.578125 374.050781 C 651.449219 373.871094 651.300781 373.707031 651.136719 373.5625 L 288.609375 40.101562 C 288.257812 39.714844 287.820312 39.484375 287.300781 39.414062 Z M 287.300781 39.414062 " fill-opacity="1" fill-rule="nonzero"></path></g><path fill="#2c2d2f" d="M 115.320312 117.03125 L 377.011719 378.730469 L 115.320312 640.429688 Z M 115.320312 117.03125 " fill-opacity="1" fill-rule="nonzero"></path><g clip-path="url(#3755924407)"><path fill="#2c2d2f" d="M 114.929688 641.34375 L 114.929688 116.117188 L 377.546875 378.730469 Z M 115.695312 117.957031 L 115.695312 639.503906 L 376.476562 378.730469 Z M 115.695312 117.957031 " fill-opacity="1" fill-rule="nonzero"></path></g></svg>