<svg xmlns="http://www.w3.org/2000/svg" xmlns:xlink="http://www.w3.org/1999/xlink" width="5000" zoomAndPan="magnify" viewBox="0 0 3750 749.999995" height="1000" preserveAspectRatio="xMidYMid meet" version="1.0"><defs><g/><clipPath id="d006e8770d"><path d="M 354 0.0390625 L 3348.878906 0.0390625 L 3348.878906 631.238281 L 354 631.238281 Z M 354 0.0390625 " clip-rule="nonzero"/></clipPath><clipPath id="6f4aa06259"><rect x="0" width="2995" y="0" height="632"/></clipPath><clipPath id="b73f2d0bd2"><path d="M 83 146.746094 L 264 146.746094 L 264 485.253906 L 83 485.253906 Z M 83 146.746094 " clip-rule="nonzero"/></clipPath><clipPath id="be2da59a72"><path d="M 0.429688 185 L 129 185 L 129 442 L 0.429688 442 Z M 0.429688 185 " clip-rule="nonzero"/></clipPath><clipPath id="67c05ecb98"><path d="M 0.429688 184 L 130 184 L 130 443 L 0.429688 443 Z M 0.429688 184 " clip-rule="nonzero"/></clipPath><clipPath id="914068236c"><rect x="0" width="3349" y="0" height="632"/></clipPath></defs><g transform="matrix(1, 0, 0, 1, 230, 59)"><g clip-path="url(#914068236c)"><g clip-path="url(#d006e8770d)"><g transform="matrix(1, 0, 0, 1, 354, -0.000000000000056843)"><g clip-path="url(#6f4aa06259)"><g fill="#2c2d2f" fill-opacity="1"><g transform="translate(0.874191, 473.213572)"><g><path d="M 189.203125 0 L 123.4375 -119.375 L 104.96875 -119.375 L 104.96875 0 L 27.9375 0 L 27.9375 -316.25 L 157.21875 -316.25 C 182.144531 -316.25 203.394531 -311.894531 220.96875 -303.1875 C 238.539062 -294.476562 251.679688 -282.539062 260.390625 -267.375 C 269.097656 -252.207031 273.453125 -235.3125 273.453125 -216.6875 C 273.453125 -195.664062 267.519531 -176.894531 255.65625 -160.375 C 243.789062 -143.851562 226.296875 -132.140625 203.171875 -125.234375 L 276.15625 0 Z M 104.96875 -173.890625 L 152.71875 -173.890625 C 166.832031 -173.890625 177.414062 -177.34375 184.46875 -184.25 C 191.53125 -191.15625 195.0625 -200.914062 195.0625 -213.53125 C 195.0625 -225.550781 191.53125 -235.015625 184.46875 -241.921875 C 177.414062 -248.828125 166.832031 -252.28125 152.71875 -252.28125 L 104.96875 -252.28125 Z M 104.96875 -173.890625 "/></g></g></g><g fill="#2c2d2f" fill-opacity="1"><g transform="translate(278.830001, 473.213572)"><g><path d="M 104.96875 -254.53125 L 104.96875 -190.5625 L 208.125 -190.5625 L 208.125 -131.09375 L 104.96875 -131.09375 L 104.96875 -61.71875 L 221.640625 -61.71875 L 221.640625 0 L 27.9375 0 L 27.9375 -316.25 L 221.640625 -316.25 L 221.640625 -254.53125 Z M 104.96875 -254.53125 "/></g></g></g><g fill="#2c2d2f" fill-opacity="1"><g transform="translate(506.780783, 473.213572)"><g><path d="M 14.859375 -158.578125 C 14.859375 -189.804688 21.613281 -217.660156 35.125 -242.140625 C 48.644531 -266.617188 67.492188 -285.691406 91.671875 -299.359375 C 115.847656 -313.023438 143.253906 -319.859375 173.890625 -319.859375 C 211.429688 -319.859375 243.566406 -309.945312 270.296875 -290.125 C 297.023438 -270.300781 314.894531 -243.269531 323.90625 -209.03125 L 239.21875 -209.03125 C 232.90625 -222.25 223.96875 -232.3125 212.40625 -239.21875 C 200.84375 -246.125 187.703125 -249.578125 172.984375 -249.578125 C 149.265625 -249.578125 130.046875 -241.316406 115.328125 -224.796875 C 100.609375 -208.273438 93.25 -186.203125 93.25 -158.578125 C 93.25 -130.941406 100.609375 -108.863281 115.328125 -92.34375 C 130.046875 -75.832031 149.265625 -67.578125 172.984375 -67.578125 C 187.703125 -67.578125 200.84375 -71.03125 212.40625 -77.9375 C 223.96875 -84.84375 232.90625 -94.90625 239.21875 -108.125 L 323.90625 -108.125 C 314.894531 -73.882812 297.023438 -46.925781 270.296875 -27.25 C 243.566406 -7.582031 211.429688 2.25 173.890625 2.25 C 143.253906 2.25 115.847656 -4.582031 91.671875 -18.25 C 67.492188 -31.914062 48.644531 -50.910156 35.125 -75.234375 C 21.613281 -99.554688 14.859375 -127.335938 14.859375 -158.578125 Z M 14.859375 -158.578125 "/></g></g></g><g fill="#2c2d2f" fill-opacity="1"><g transform="translate(834.291078, 473.213572)"><g><path d="M 177.5 3.15625 C 147.757812 3.15625 120.5 -3.75 95.71875 -17.5625 C 70.945312 -31.382812 51.273438 -50.679688 36.703125 -75.453125 C 22.140625 -100.234375 14.859375 -128.09375 14.859375 -159.03125 C 14.859375 -189.957031 22.140625 -217.734375 36.703125 -242.359375 C 51.273438 -266.992188 70.945312 -286.21875 95.71875 -300.03125 C 120.5 -313.84375 147.757812 -320.75 177.5 -320.75 C 207.226562 -320.75 234.476562 -313.84375 259.25 -300.03125 C 284.03125 -286.21875 303.550781 -266.992188 317.8125 -242.359375 C 332.082031 -217.734375 339.21875 -189.957031 339.21875 -159.03125 C 339.21875 -128.09375 332.007812 -100.234375 317.59375 -75.453125 C 303.1875 -50.679688 283.664062 -31.382812 259.03125 -17.5625 C 234.40625 -3.75 207.226562 3.15625 177.5 3.15625 Z M 177.5 -67.125 C 202.726562 -67.125 222.925781 -75.53125 238.09375 -92.34375 C 253.257812 -109.164062 260.84375 -131.394531 260.84375 -159.03125 C 260.84375 -186.957031 253.257812 -209.253906 238.09375 -225.921875 C 222.925781 -242.585938 202.726562 -250.921875 177.5 -250.921875 C 151.96875 -250.921875 131.617188 -242.660156 116.453125 -226.140625 C 101.285156 -209.628906 93.703125 -187.257812 93.703125 -159.03125 C 93.703125 -131.09375 101.285156 -108.789062 116.453125 -92.125 C 131.617188 -75.457031 151.96875 -67.125 177.5 -67.125 Z M 177.5 -67.125 "/></g></g></g><g fill="#2c2d2f" fill-opacity="1"><g transform="translate(1172.618495, 473.213572)"><g><path d="M 353.1875 -311.75 L 353.1875 0 L 312.203125 0 L 312.203125 -232.453125 L 208.578125 0 L 179.75 0 L 75.6875 -232.90625 L 75.6875 0 L 34.6875 0 L 34.6875 -311.75 L 78.84375 -311.75 L 194.171875 -54.0625 L 309.5 -311.75 Z M 353.1875 -311.75 "/></g></g></g><g fill="#2c2d2f" fill-opacity="1"><g transform="translate(1544.727935, 473.213572)"><g><path d="M 353.1875 -311.75 L 353.1875 0 L 312.203125 0 L 312.203125 -232.453125 L 208.578125 0 L 179.75 0 L 75.6875 -232.90625 L 75.6875 0 L 34.6875 0 L 34.6875 -311.75 L 78.84375 -311.75 L 194.171875 -54.0625 L 309.5 -311.75 Z M 353.1875 -311.75 "/></g></g></g><g fill="#2c2d2f" fill-opacity="1"><g transform="translate(1916.837375, 473.213572)"><g><path d="M 281.5625 0 L 240.5625 0 L 75.6875 -250.03125 L 75.6875 0 L 34.6875 0 L 34.6875 -314.453125 L 75.6875 -314.453125 L 240.5625 -64.875 L 240.5625 -314.453125 L 281.5625 -314.453125 Z M 281.5625 0 "/></g></g></g><g fill="#2c2d2f" fill-opacity="1"><g transform="translate(2217.768399, 473.213572)"><g><path d="M 132.453125 -314 C 166.679688 -314 196.332031 -307.613281 221.40625 -294.84375 C 246.488281 -282.082031 265.710938 -263.835938 279.078125 -240.109375 C 292.441406 -216.390625 299.125 -188.460938 299.125 -156.328125 C 299.125 -124.191406 292.441406 -96.332031 279.078125 -72.75 C 265.710938 -49.175781 246.488281 -31.15625 221.40625 -18.6875 C 196.332031 -6.226562 166.679688 0 132.453125 0 L 34.6875 0 L 34.6875 -314 Z M 132.453125 -33.78125 C 172.992188 -33.78125 203.925781 -44.515625 225.25 -65.984375 C 246.570312 -87.460938 257.234375 -117.578125 257.234375 -156.328125 C 257.234375 -195.367188 246.492188 -225.847656 225.015625 -247.765625 C 203.546875 -269.691406 172.691406 -280.65625 132.453125 -280.65625 L 75.6875 -280.65625 L 75.6875 -33.78125 Z M 132.453125 -33.78125 "/></g></g></g><g fill="#2c2d2f" fill-opacity="1"><g transform="translate(2520.501486, 473.213572)"><g><path d="M 75.6875 -280.65625 L 75.6875 -175.6875 L 190.109375 -175.6875 L 190.109375 -141.90625 L 75.6875 -141.90625 L 75.6875 -33.78125 L 203.625 -33.78125 L 203.625 0 L 34.6875 0 L 34.6875 -314.453125 L 203.625 -314.453125 L 203.625 -280.65625 Z M 75.6875 -280.65625 "/></g></g></g><g fill="#2c2d2f" fill-opacity="1"><g transform="translate(2735.838256, 473.213572)"><g><path d="M 200.015625 0 L 125.234375 -128.390625 L 75.6875 -128.390625 L 75.6875 0 L 34.6875 0 L 34.6875 -314 L 136.046875 -314 C 159.773438 -314 179.820312 -309.941406 196.1875 -301.828125 C 212.5625 -293.722656 224.800781 -282.757812 232.90625 -268.9375 C 241.019531 -255.125 245.078125 -239.359375 245.078125 -221.640625 C 245.078125 -200.015625 238.84375 -180.941406 226.375 -164.421875 C 213.914062 -147.910156 195.21875 -136.953125 170.28125 -131.546875 L 249.125 0 Z M 75.6875 -161.28125 L 136.046875 -161.28125 C 158.273438 -161.28125 174.941406 -166.757812 186.046875 -177.71875 C 197.160156 -188.6875 202.71875 -203.328125 202.71875 -221.640625 C 202.71875 -240.265625 197.238281 -254.679688 186.28125 -264.890625 C 175.320312 -275.109375 158.578125 -280.21875 136.046875 -280.21875 L 75.6875 -280.21875 Z M 75.6875 -161.28125 "/></g></g></g></g></g></g><path fill="#2c2d2f" d="M 263.226562 313.316406 C 263.40625 313.148438 263.539062 312.953125 263.636719 312.726562 C 263.730469 312.503906 263.777344 312.269531 263.773438 312.027344 C 263.769531 311.78125 263.71875 311.550781 263.621094 311.328125 C 263.519531 311.105469 263.378906 310.914062 263.199219 310.75 L 85.648438 147.441406 C 84.898438 146.746094 84.269531 147.019531 84.265625 148.046875 L 84.085938 210.503906 C 84.148438 211.722656 84.59375 212.777344 85.425781 213.667969 L 186.074219 310.722656 C 186.25 310.890625 186.390625 311.089844 186.484375 311.316406 C 186.582031 311.542969 186.632812 311.777344 186.636719 312.023438 C 186.636719 312.269531 186.59375 312.507812 186.5 312.734375 C 186.40625 312.960938 186.273438 313.164062 186.101562 313.339844 L 85.398438 414.546875 C 84.585938 415.457031 84.148438 416.519531 84.09375 417.738281 L 84.464844 483.953125 C 84.464844 484.980469 85.082031 485.238281 85.824219 484.523438 Z M 263.226562 313.316406 " fill-opacity="1" fill-rule="nonzero"/><g clip-path="url(#b73f2d0bd2)"><path fill="#2c2d2f" d="M 85.058594 485.117188 C 84.96875 485.117188 84.882812 485.101562 84.800781 485.0625 C 84.46875 484.925781 84.285156 484.53125 84.28125 483.941406 L 83.910156 417.726562 C 83.96875 416.457031 84.421875 415.347656 85.269531 414.402344 L 185.976562 313.210938 C 186.132812 313.054688 186.253906 312.871094 186.335938 312.667969 C 186.417969 312.460938 186.457031 312.25 186.457031 312.027344 C 186.453125 311.804688 186.410156 311.59375 186.320312 311.390625 C 186.234375 311.1875 186.109375 311.007812 185.949219 310.855469 L 85.296875 213.804688 C 84.429688 212.875 83.960938 211.773438 83.898438 210.503906 L 84.078125 148.066406 C 84.078125 147.488281 84.265625 147.089844 84.597656 146.945312 C 84.929688 146.796875 85.34375 146.945312 85.773438 147.316406 L 263.324219 310.628906 C 263.523438 310.808594 263.679688 311.019531 263.789062 311.265625 C 263.898438 311.511719 263.957031 311.769531 263.960938 312.039062 C 263.964844 312.308594 263.914062 312.566406 263.808594 312.816406 C 263.703125 313.0625 263.554688 313.28125 263.359375 313.464844 L 85.957031 484.660156 C 85.71875 484.929688 85.417969 485.082031 85.058594 485.117188 Z M 84.882812 147.242188 C 84.835938 147.242188 84.789062 147.25 84.746094 147.269531 C 84.558594 147.351562 84.453125 147.644531 84.449219 148.046875 L 84.273438 210.503906 C 84.339844 211.667969 84.765625 212.675781 85.554688 213.535156 L 186.210938 310.585938 C 186.40625 310.773438 186.558594 310.992188 186.664062 311.242188 C 186.773438 311.492188 186.828125 311.753906 186.832031 312.023438 C 186.832031 312.292969 186.785156 312.554688 186.679688 312.808594 C 186.578125 313.058594 186.433594 313.28125 186.242188 313.472656 L 85.53125 414.675781 C 84.757812 415.550781 84.339844 416.574219 84.277344 417.738281 L 84.652344 483.953125 C 84.652344 484.355469 84.765625 484.644531 84.941406 484.699219 C 85.117188 484.757812 85.402344 484.652344 85.6875 484.371094 L 263.09375 313.179688 C 263.25 313.03125 263.375 312.855469 263.457031 312.65625 C 263.542969 312.457031 263.585938 312.246094 263.582031 312.027344 C 263.578125 311.8125 263.535156 311.605469 263.445312 311.40625 C 263.355469 311.207031 263.230469 311.035156 263.066406 310.890625 L 85.519531 147.578125 C 85.347656 147.390625 85.136719 147.277344 84.882812 147.242188 Z M 84.882812 147.242188 " fill-opacity="1" fill-rule="nonzero"/></g><g clip-path="url(#be2da59a72)"><path fill="#2c2d2f" d="M 0.652344 185.253906 L 128.816406 313.421875 L 0.652344 441.585938 Z M 0.652344 185.253906 " fill-opacity="1" fill-rule="nonzero"/></g><g clip-path="url(#67c05ecb98)"><path fill="#2c2d2f" d="M 0.464844 442.035156 L 0.464844 184.804688 L 129.078125 313.421875 Z M 0.835938 185.707031 L 0.835938 441.132812 L 128.554688 313.421875 Z M 0.835938 185.707031 " fill-opacity="1" fill-rule="nonzero"/></g></g></g></svg>